<?xml version="1.0" standalone="no"?>
<!DOCTYPE svg PUBLIC "-//W3C//DTD SVG 20010904//EN"
 "http://www.w3.org/TR/2001/REC-SVG-20010904/DTD/svg10.dtd">
<svg version="1.0" xmlns="http://www.w3.org/2000/svg"
 width="379.000000pt" height="91.000000pt" viewBox="0 0 379.000000 91.000000"
 preserveAspectRatio="xMidYMid meet">

<g transform="translate(0.000000,91.000000) scale(0.100000,-0.100000)"
fill="#000000" stroke="none">
<path d="M311 814 c-97 -34 -174 -106 -219 -203 -23 -47 -27 -70 -27 -146 0
-82 3 -97 32 -156 39 -79 102 -140 181 -177 49 -23 70 -27 152 -27 82 0 103 4
150 26 84 40 135 90 176 174 33 66 36 81 36 157 0 164 -86 291 -238 348 -66
24 -179 26 -243 4z m226 -30 c152 -52 254 -221 224 -371 -23 -116 -90 -204
-191 -252 -47 -22 -68 -26 -145 -26 -73 1 -99 5 -136 23 -75 37 -125 87 -161
160 -29 58 -33 76 -33 147 0 67 5 90 28 140 35 74 110 147 180 174 65 25 169
27 234 5z"/>
<path d="M390 654 c0 -3 32 -44 70 -91 39 -47 70 -89 70 -93 0 -4 -31 -46 -70
-93 -38 -47 -70 -88 -70 -91 0 -3 58 -6 130 -6 160 0 177 18 21 22 l-109 3 64
78 c35 43 64 82 64 87 0 5 -29 44 -64 87 l-64 78 109 3 c156 4 139 22 -21 22
-72 0 -130 -3 -130 -6z"/>
<path d="M257 633 c-3 -5 21 -41 54 -82 32 -40 59 -77 59 -81 0 -5 -10 -21
-23 -37 -83 -101 -97 -122 -88 -127 9 -6 141 147 141 164 0 9 -128 170 -135
170 -2 0 -6 -3 -8 -7z"/>
<path d="M3415 616 c-37 -17 -80 -62 -94 -99 -15 -39 -14 -111 3 -150 18 -44
78 -95 121 -103 135 -25 245 54 245 178 0 81 -39 145 -107 174 -41 18 -129 17
-168 0z m169 -34 c140 -82 80 -296 -84 -296 -105 0 -181 93 -159 193 11 49 38
82 90 109 50 26 102 24 153 -6z"/>
<path d="M1010 445 l0 -175 74 0 c59 0 79 4 107 23 93 63 113 183 43 267 -40
46 -74 60 -154 60 l-70 0 0 -175z m168 129 c43 -25 66 -71 66 -129 0 -94 -52
-145 -151 -148 l-58 -2 -3 140 c-1 76 0 145 3 153 7 20 103 10 143 -14z"/>
<path d="M1360 555 l0 -65 80 0 c97 0 107 18 13 22 l-68 3 0 40 0 40 103 3
c141 4 131 22 -13 22 l-115 0 0 -65z"/>
<path d="M1666 612 c-6 -10 132 -125 149 -125 17 0 155 115 149 125 -9 14 -18
9 -79 -42 -33 -27 -64 -49 -70 -49 -5 0 -37 22 -70 49 -61 51 -70 56 -79 42z"/>
<path d="M2080 555 l0 -65 80 0 c97 0 107 18 13 22 l-68 3 0 40 0 40 103 3
c141 4 131 22 -13 22 l-115 0 0 -65z"/>
<path d="M2376 612 c-3 -5 58 -59 134 -121 l140 -111 0 120 c0 73 -4 120 -10
120 -6 0 -10 -37 -10 -90 0 -49 -2 -90 -5 -90 -3 0 -56 41 -118 90 -61 50
-115 90 -119 90 -4 0 -9 -4 -12 -8z"/>
<path d="M2700 611 c0 -6 24 -11 53 -13 l52 -3 3 -162 c1 -95 6 -163 12 -163
6 0 11 68 12 163 l3 162 53 3 c28 2 52 7 52 13 0 5 -51 9 -120 9 -69 0 -120
-4 -120 -9z"/>
<path d="M3000 555 l0 -65 115 0 115 0 0 65 c0 78 -18 88 -22 13 l-3 -53 -90
0 -90 0 -3 53 c-4 75 -22 65 -22 -13z"/>
<path d="M1650 385 c0 -138 18 -157 22 -24 l3 92 60 -48 c33 -27 65 -52 70
-56 6 -5 41 16 80 47 l70 56 3 -91 c4 -133 22 -113 22 24 0 63 -3 115 -6 115
-3 0 -39 -27 -79 -60 -40 -33 -76 -60 -80 -60 -4 0 -40 27 -80 60 -40 33 -76
60 -79 60 -3 0 -6 -52 -6 -115z"/>
<path d="M2360 385 c0 -70 4 -115 10 -115 6 0 10 37 10 90 0 50 2 90 5 90 3 0
56 -41 118 -90 102 -82 129 -98 128 -77 0 8 -256 217 -266 217 -3 0 -5 -52 -5
-115z"/>
<path d="M1360 335 l0 -65 115 0 c144 0 154 18 13 22 l-103 3 -3 43 -3 42 70
0 c41 0 71 4 71 10 0 6 -33 10 -80 10 l-80 0 0 -65z"/>
<path d="M2080 335 l0 -65 115 0 c144 0 154 18 13 22 l-103 3 -3 43 -3 42 70
0 c41 0 71 4 71 10 0 6 -33 10 -80 10 l-80 0 0 -65z"/>
<path d="M3000 335 c0 -37 4 -65 10 -65 6 0 10 25 10 55 l0 56 93 -3 92 -3 3
-52 c4 -76 22 -66 22 12 l0 65 -115 0 -115 0 0 -65z"/>
</g>
</svg>
